<svg width="593" height="212" viewBox="0 0 593 212" fill="none" xmlns="http://www.w3.org/2000/svg">
<path d="M600.038 545.377C675.69 510.09 759.386 465.996 809.649 423.263C1005.68 255.524 855.304 93.2077 755.609 33.0168C664.225 -42.1615 560.419 32.3601 519.939 79.0182C468.808 148.103 411.068 142.113 388.589 130.482C342.564 99.533 297.295 86.155 280.413 83.3346C128.371 64.2322 127.006 178.285 145.329 237.699C184.402 331.77 133.361 389.996 102.957 407.351C-89.7122 539.451 34.0339 672.794 119.991 722.952C182.929 752.51 245.732 724.902 269.266 707.404C313.836 668.942 345.009 652.711 355.025 649.404C396.751 630.872 535.753 572.331 600.038 545.377Z" fill="#4EABBF"/>
</svg>
