<svg width="166" height="465" viewBox="0 0 166 465" fill="none" xmlns="http://www.w3.org/2000/svg">
    <path d="M26.2922 337.742C-18.2488 256.146 31.6524 221.874 62.1707 214.937C182.893 161.398 172.859 86.0488 152.751 55.0663C123.452 -25.9531 37.9499 0.582825 -1.13878 23.9782C-51.6733 64.6179 -124.466 105.279 -154.545 120.529C-246.285 171.541 -364.131 174.738 -411.586 169.96C-515.919 149.229 -567.053 229.954 -579.578 272.908C-599.864 350.912 -472.727 422.861 -406.622 449.085C-365.742 483.9 -317.205 440.917 -298.047 415.074C-243.295 354.119 -202.032 386.037 -188.245 409.616C-153.405 456.192 -99.0554 465.607 -76.2359 464.493C53.1861 450.673 46.042 374.234 26.2922 337.742Z" fill="#4EABBF"/>
</svg>
