<svg width="485" height="218" viewBox="0 0 485 218" fill="none" xmlns="http://www.w3.org/2000/svg">
<path d="M462.89 -394.032C381.514 -412.639 288.38 -429.235 222.468 -426.375C-35.2572 -414.373 -16.2478 -193.92 25.4727 -85.193C51.4296 30.2581 179.12 35.1892 239.72 23.2234C322.499 0.0985292 364.391 40.2835 374.99 63.2666C392.309 115.956 419.822 154.314 431.414 166.907C539.68 275.351 610.796 186.175 632.821 128.031C659.751 29.7924 735.79 15.1817 770.444 20.1561C1003.63 34.2138 987.846 -147.016 950.808 -239.388C919.285 -301.366 852.765 -318.144 823.446 -318.785C764.651 -315.8 730.081 -322.133 720.145 -325.673C675.833 -336.671 530.178 -375.828 462.89 -394.032Z" fill="#4EABBF"/>
</svg>
