<svg width="411" height="214" viewBox="0 0 411 214" fill="none" xmlns="http://www.w3.org/2000/svg">
<path d="M130.822 129.178C131.545 28.9062 199.221 23.3597 232.969 33.1203C380.688 47.2532 411.891 -28.7675 409.028 -68.5444C424.403 -160.151 325.983 -180.837 274.851 -179.729C203.083 -168.548 109.447 -169.212 71.6004 -170.941C-46.2816 -171.995 -163.745 -231.81 -207.741 -261.586C-298.897 -336.642 -393.096 -288.184 -428.8 -254.573C-491.223 -192.224 -405.582 -56.9742 -354.959 2.8569C-333.785 57.3011 -262.703 42.8572 -229.808 28.8297C-142.829 0.84324 -119.702 52.7736 -119.011 82.237C-110.177 144.493 -61.9379 182.293 -38.9225 193.411C95.6968 249.434 130.332 173.932 130.822 129.178Z" fill="#4EABBF"/>
</svg>
